<?xml version="1.0" encoding="UTF-8"?>
<svg version="1.1" xmlns="http://www.w3.org/2000/svg" viewBox="82 378 558 88">
<path d="M0 0 C7.26 0 14.52 0 22 0 C23.41300513 4.2390154 24.46064719 7.90836739 25.25390625 12.23828125 C25.46853516 13.38748047 25.68316406 14.53667969 25.90429688 15.72070312 C26.12150391 16.90599609 26.33871094 18.09128906 26.5625 19.3125 C26.9977642 21.68424575 27.4363779 24.05538012 27.87890625 26.42578125 C28.0704126 27.47161377 28.26191895 28.51744629 28.45922852 29.5949707 C28.76119475 31.9394488 28.76119475 31.9394488 30 33 C32.97 22.11 35.94 11.22 39 0 C46.59 0 54.18 0 62 0 C63.12523981 3.8540968 64.25020007 7.70827483 65.375 11.5625 C65.69210938 12.64853516 66.00921875 13.73457031 66.3359375 14.85351562 C66.9519106 16.96450676 67.56621985 19.07598424 68.17871094 21.18798828 C68.66734261 22.86101432 69.16283227 24.53209992 69.67285156 26.19873047 C70.62844512 29.3545487 71 31.63778784 71 35 C71.66 35 72.32 35 73 35 C73.0424585 34.43039551 73.08491699 33.86079102 73.12866211 33.27392578 C73.75289569 26.02126968 75.08429632 18.99687768 76.5625 11.875 C76.91344727 10.15410156 76.91344727 10.15410156 77.27148438 8.3984375 C77.84322995 5.59805099 78.42099216 2.79889399 79 0 C86.26 0 93.52 0 101 0 C102.51346317 3.02692633 101.48054014 5.14800169 100.75244141 8.42163086 C100.60789017 9.08034683 100.46333893 9.73906281 100.31440735 10.41773987 C99.83338993 12.60162595 99.34257957 14.78318608 98.8515625 16.96484375 C98.51567235 18.47925269 98.18034231 19.99378597 97.84555054 21.50843811 C97.14172476 24.68616725 96.43347559 27.86286512 95.72167969 31.03881836 C94.80905773 35.11091497 93.90371452 39.18458231 93.00121498 43.25893307 C92.1411672 47.14059011 91.27788042 51.02152423 90.4140625 54.90234375 C90.24911915 55.64427412 90.0841758 56.38620449 89.91423416 57.1506176 C89.44669973 59.25046832 88.9769151 61.34980176 88.50634766 63.44897461 C88.23907867 64.64429306 87.97180969 65.83961151 87.69644165 67.07115173 C87 70 87 70 86 73 C78.08 73 70.16 73 62 73 C58.37 60.13 54.74 47.26 51 34 C48.09000736 43.31197645 45.22884875 52.52187288 42.75 61.9375 C42.2478823 63.8432649 41.7428434 65.74826342 41.234375 67.65234375 C41.02006836 68.46695068 40.80576172 69.28155762 40.58496094 70.12084961 C40 72 40 72 39 73 C37.29227642 73.08713831 35.58101351 73.10700007 33.87109375 73.09765625 C32.83662109 73.09443359 31.80214844 73.09121094 30.73632812 73.08789062 C29.64771484 73.07951172 28.55910156 73.07113281 27.4375 73.0625 C25.7987793 73.05573242 25.7987793 73.05573242 24.12695312 73.04882812 C21.41791505 73.03699826 18.70898401 73.02051543 16 73 C14.57210383 68.90005008 13.43381377 64.83528951 12.48779297 60.59912109 C12.2076535 59.35117767 11.92751404 58.10323425 11.6388855 56.81747437 C11.33979253 55.46950503 11.04089792 54.12149166 10.7421875 52.7734375 C10.43131695 51.37908543 10.12028946 49.98476835 9.80911255 48.59048462 C9.15983749 45.67765388 8.51295411 42.76430457 7.86767578 39.85058594 C7.04106165 36.11930194 6.20771783 32.38955777 5.37249565 28.66019249 C4.7295409 25.78524315 4.0905317 22.90942769 3.45267105 20.03334427 C3.14697497 18.6575587 2.83996637 17.28206409 2.5316124 15.9068718 C2.10148428 13.98618326 1.67731815 12.0641625 1.25341797 10.14208984 C1.01074188 9.04988129 0.7680658 7.95767273 0.51803589 6.83236694 C0 4 0 4 0 0 Z " fill="#111" transform="translate(161,386)"/>
<path d="M0 0 C6.87705529 5.90214707 10.30462096 13.18011193 11.22314453 22.18847656 C12.04294858 34.56006494 11.49103497 46.97817545 3.375 57 C-4.63284942 65.08199617 -14.79819883 67.95084025 -25.9375 68.25 C-37.5577733 67.94085345 -48.07901164 65.44701016 -56.375 56.875 C-65.35615323 45.69400964 -65.22247312 32.76646628 -64 19 C-62.38466498 9.82287795 -57.28857911 2.89734929 -49.83203125 -2.59765625 C-35.08573191 -11.54983443 -13.59252056 -10.39155155 0 0 Z M-38 16 C-41.88306861 23.50037587 -42.11576142 31.76976704 -39.875 39.8125 C-38.16096708 44.35911315 -36.10985291 46.42126876 -32 49 C-27.17792323 50.53896067 -23.64281623 49.94154133 -19 48 C-13.75144478 43.68452126 -12.94633418 39.01111813 -12.15234375 32.39453125 C-11.8664078 26.02329177 -12.51639178 20.42322676 -15.875 14.9375 C-20.1504307 11.03931318 -23.86323756 10.48265946 -29.52734375 10.6328125 C-33.6260057 11.24146056 -35.37817827 12.86660329 -38 16 Z " fill="#111" transform="translate(330,393)"/>
<path d="M0 0 C20.13 0 40.26 0 61 0 C61 5.61 61 11.22 61 17 C48.79 17 36.58 17 24 17 C24 20.3 24 23.6 24 27 C35.22 27 46.44 27 58 27 C58 32.28 58 37.56 58 43 C46.78 43 35.56 43 24 43 C24 47.29 24 51.58 24 56 C36.54 56 49.08 56 62 56 C62 61.61 62 67.22 62 73 C41.54 73 21.08 73 0 73 C0 48.91 0 24.82 0 0 Z " fill="#111" transform="translate(418,386)"/>
<path d="M0 0 C8.84882724 -0.02255318 17.69763552 -0.04091634 26.54648495 -0.05181217 C30.65494285 -0.05704046 34.76338014 -0.06413713 38.87182617 -0.07543945 C42.83346828 -0.08627025 46.79509052 -0.09227724 50.75674629 -0.09487724 C52.27148311 -0.09673114 53.78621879 -0.1003511 55.30094719 -0.10573006 C57.41541813 -0.11294307 59.52980594 -0.11399083 61.64428711 -0.11352539 C62.85007919 -0.115746 64.05587128 -0.11796661 65.29820251 -0.12025452 C68 0 68 0 69 1 C69.0983721 2.33043625 69.13078592 3.66593344 69.1328125 5 C69.13410156 5.804375 69.13539063 6.60875 69.13671875 7.4375 C69.13285156 8.283125 69.12898437 9.12875 69.125 10 C69.12886719 10.845625 69.13273438 11.69125 69.13671875 12.5625 C69.13542969 13.366875 69.13414062 14.17125 69.1328125 15 C69.13168457 15.7425 69.13055664 16.485 69.12939453 17.25 C69 19 69 19 68 20 C60.74 20 53.48 20 46 20 C46 37.49 46 54.98 46 73 C38.08 73 30.16 73 22 73 C22 55.51 22 38.02 22 20 C14.74 20 7.48 20 0 20 C0 13.4 0 6.8 0 0 Z " fill="#111" transform="translate(558,386)"/>
<path d="M0 0 C1.80868813 0.00333092 1.80868813 0.00333092 3.65391541 0.00672913 C4.64899864 0.00651009 4.64899864 0.00651009 5.66418457 0.00628662 C7.86644207 0.00698571 10.06861596 0.01477787 12.27085876 0.02259827 C13.79400588 0.02446246 15.31715359 0.02588636 16.84030151 0.02688599 C20.85657903 0.03071105 24.87282059 0.04054124 28.88908386 0.05158997 C32.98443617 0.06180433 37.07979427 0.06638366 41.17515564 0.07142639 C49.21618963 0.08216352 57.25718746 0.09976022 65.29820251 0.12025452 C65.29820251 6.72025452 65.29820251 13.32025452 65.29820251 20.12025452 C58.03820251 20.12025452 50.77820251 20.12025452 43.29820251 20.12025452 C43.29820251 37.61025452 43.29820251 55.10025452 43.29820251 73.12025452 C35.37820251 73.12025452 27.45820251 73.12025452 19.29820251 73.12025452 C19.29820251 55.63025452 19.29820251 38.14025452 19.29820251 20.12025452 C12.03820251 20.12025452 4.77820251 20.12025452 -2.70179749 20.12025452 C-4.22389339 18.59815861 -3.83139269 17.2381537 -3.83460999 15.12025452 C-3.83589905 14.31587952 -3.83718811 13.51150452 -3.83851624 12.68275452 C-3.83464905 11.83712952 -3.83078186 10.99150452 -3.82679749 10.12025452 C-3.83066467 9.27462952 -3.83453186 8.42900452 -3.83851624 7.55775452 C-3.83722717 6.75337952 -3.83593811 5.94900452 -3.83460999 5.12025452 C-3.83348206 4.37775452 -3.83235413 3.63525452 -3.83119202 2.87025452 C-3.61387257 -0.06888851 -2.9601394 0.13175308 0 0 Z " fill="#111" transform="translate(488.70179748535156,385.87974548339844)"/>
<path d="M0 0 C22.77 0 45.54 0 69 0 C69 6.6 69 13.2 69 20 C61.41 20 53.82 20 46 20 C46 37.49 46 54.98 46 73 C38.41 73 30.82 73 23 73 C23 55.51 23 38.02 23 20 C15.41 20 7.82 20 0 20 C0 13.4 0 6.8 0 0 Z " fill="#111" transform="translate(91,386)"/>
<path d="M0 0 C7.59 0 15.18 0 23 0 C23 17.82 23 35.64 23 54 C34.55 54 46.1 54 58 54 C58 60.27 58 66.54 58 73 C38.86 73 19.72 73 0 73 C0 48.91 0 24.82 0 0 Z " fill="#111" transform="translate(352,386)"/>
</svg>
