<?xml version="1.0" encoding="UTF-8"?>
<svg version="1.1" xmlns="http://www.w3.org/2000/svg" viewBox="45 5 580 350">
<path d="M0 0 C3.05883825 1.55329928 3.05883825 1.55329928 6.15234375 0.20703125 C7.16039062 -0.375625 8.1684375 -0.95828125 9.20703125 -1.55859375 C18.65102839 -6.89337076 28.82875399 -7.05538241 39.4453125 -5.23046875 C47.57448322 -2.86170377 53.63313228 1.87822167 60.08203125 7.19140625 C61.33100397 8.19919113 62.58105372 9.2056423 63.83203125 10.2109375 C67.23730331 12.95591798 70.62545148 15.72121549 74.00878906 18.49316406 C77.40325804 21.27365466 80.80384185 24.04659852 84.20703125 26.81640625 C84.87259033 27.35821533 85.53814941 27.90002441 86.22387695 28.45825195 C90.4546589 31.89372353 94.72205501 35.2773921 99.01953125 38.62890625 C105.02480405 43.31229613 110.90052611 48.14221598 116.76538086 52.99975586 C121.15604854 56.62829612 125.58709769 60.19303995 130.08203125 63.69140625 C136.06923583 68.35119365 141.92296594 73.1607314 147.765625 78 C152.15624597 81.62841552 156.58718832 85.19311049 161.08203125 88.69140625 C167.06923583 93.35119365 172.92296594 98.1607314 178.765625 103 C183.15624597 106.62841552 187.58718832 110.19311049 192.08203125 113.69140625 C198.06923583 118.35119365 203.92296594 123.1607314 209.765625 128 C214.15624597 131.62841552 218.58718832 135.19311049 223.08203125 138.69140625 C229.06586195 143.34856778 234.91854293 148.1528393 240.75463867 152.9934082 C245.24081672 156.7048259 249.78773731 160.31893546 254.39453125 163.87890625 C267.11092178 173.77688354 279.7390885 183.6074221 283.08203125 200.19140625 C284.53088309 212.03772995 283.24482275 223.12446732 276.02734375 233.00390625 C268.7259341 241.49274238 260.41150048 248.44012867 249.08203125 250.19140625 C246.32250704 250.28602 243.58860495 250.33093372 240.82938957 250.32562733 C239.58219186 250.32915567 239.58219186 250.32915567 238.30979824 250.3327553 C235.51135917 250.33943565 232.71296664 250.33898736 229.91452026 250.33857727 C227.89276691 250.34187649 225.87101421 250.34560218 223.84926236 250.34971875 C218.28362213 250.35974015 212.71799268 250.36345577 207.1523447 250.36610806 C201.15352482 250.37001064 195.15471348 250.37958895 189.15589905 250.38832092 C175.34961729 250.40715146 161.5433349 250.41734113 147.73704397 250.4257816 C140.9135817 250.42998923 134.09012031 250.43521105 127.26665878 250.44046613 C103.90642686 250.45835524 80.5461947 250.47335114 57.18595695 250.48078632 C55.71963944 250.48126108 54.25332193 250.48173697 52.78700442 250.48221399 C51.69627066 250.48256855 51.69627066 250.48256855 50.58350188 250.48293028 C46.89941791 250.48413147 43.21533396 250.48534692 39.53125 250.48657227 C38.80013502 250.48681242 38.06902004 250.48705257 37.31575006 250.48729999 C13.61164048 250.4951928 -10.09241905 250.51862479 -33.79650677 250.55112821 C-58.86139498 250.5854348 -83.92625392 250.6051382 -108.991166 250.60843056 C-111.74332612 250.6088481 -114.49548623 250.60932766 -117.24764633 250.60985374 C-118.26412543 250.61003853 -118.26412543 250.61003853 -119.30113946 250.61022705 C-130.20101199 250.61255798 -141.10082635 250.62821183 -152.00067816 250.64869559 C-162.95926234 250.66896282 -173.91778618 250.67409349 -184.87638707 250.66492496 C-190.81188705 250.66037519 -196.74719831 250.66230616 -202.6826725 250.6816864 C-208.11846536 250.69928187 -213.55393132 250.69834948 -218.98972748 250.68278911 C-220.95409849 250.68040758 -222.91849192 250.68476476 -224.88282861 250.69661776 C-240.02721678 250.78232549 -252.23590886 249.07313458 -263.85546875 238.4140625 C-271.68153805 230.16632998 -275.7419153 219.39342588 -275.984375 208.09765625 C-275.51465047 196.14103175 -271.24266641 185.81288457 -262.91796875 177.19140625 C-255.99194299 170.83542376 -248.56710937 165.08370865 -241.15014648 159.31689453 C-236.59862968 155.76667361 -232.19347827 152.06902952 -227.81030273 148.31420898 C-223.94625824 145.02027899 -219.99236812 141.86541408 -215.98046875 138.75390625 C-210.47220099 134.4784778 -205.15483214 130.02111828 -199.88256836 125.45898438 C-195.88390692 122.00347585 -191.81773591 118.6573465 -187.671875 115.37890625 C-184.08616454 112.53068234 -180.53312032 109.64319793 -176.98046875 106.75390625 C-176.28816162 106.19098877 -175.59585449 105.62807129 -174.88256836 105.0480957 C-169.21863773 100.44025423 -163.56560062 95.81920778 -157.91796875 91.19140625 C-155.16169196 88.93591222 -152.4050632 86.68084882 -149.6484375 84.42578125 C-147.8797408 82.97843574 -146.11148332 81.53055324 -144.34375 80.08203125 C-138.18617187 75.0381556 -132.01166984 70.01544169 -125.83251953 64.99804688 C-120.18302615 60.40959855 -114.5474747 55.80435498 -108.91796875 51.19140625 C-106.16169196 48.93591222 -103.4050632 46.68084882 -100.6484375 44.42578125 C-98.8797408 42.97843574 -97.11148332 41.53055324 -95.34375 40.08203125 C-89.18414157 35.03649251 -83.00850351 30.01099765 -76.82592773 24.99365234 C-72.97090852 21.86405227 -69.12693752 18.72179648 -65.29296875 15.56640625 C-64.00519531 14.51839844 -64.00519531 14.51839844 -62.69140625 13.44921875 C-61.21335844 12.24596293 -59.73672361 11.04088791 -58.27050781 9.82324219 C-41.22066207 -4.31681393 -20.70418637 -12.83271524 0 0 Z M-49.91796875 12.62890625 C-51.40966474 13.88209571 -52.90186464 15.13468556 -54.39453125 16.38671875 C-55.52036621 17.33659668 -55.52036621 17.33659668 -56.66894531 18.30566406 C-60.17660436 21.24673642 -63.73381283 24.12555429 -67.29296875 27.00390625 C-68.62388145 28.08310704 -69.95461607 29.16252747 -71.28515625 30.2421875 C-71.90745117 30.7470166 -72.52974609 31.2518457 -73.17089844 31.77197266 C-75.59174949 33.73882957 -78.0053327 35.71448507 -80.41796875 37.69140625 C-84.90820783 41.37015634 -89.4115419 45.03252562 -93.91796875 48.69140625 C-100.26320201 53.84361391 -106.59627669 59.0103253 -112.91796875 64.19140625 C-119.93588131 69.94308994 -126.97017132 75.67416581 -134.0144043 81.39355469 C-137.82161946 84.48553504 -141.62403676 87.58312462 -145.41796875 90.69140625 C-149.90820783 94.37015634 -154.4115419 98.03252562 -158.91796875 101.69140625 C-165.26320201 106.84361391 -171.59627669 112.0103253 -177.91796875 117.19140625 C-184.93588131 122.94308994 -191.97017132 128.67416581 -199.0144043 134.39355469 C-202.82161946 137.48553504 -206.62403676 140.58312462 -210.41796875 143.69140625 C-214.90820783 147.37015634 -219.4115419 151.03252562 -223.91796875 154.69140625 C-229.39550888 159.13906373 -234.86620776 163.59478279 -240.32421875 168.06640625 C-243.12433879 170.3604805 -245.92750281 172.65081043 -248.73046875 174.94140625 C-249.63796875 175.69035156 -250.54546875 176.43929687 -251.48046875 177.2109375 C-252.87323865 178.34256305 -254.28145628 179.45697149 -255.73046875 180.515625 C-263.11104287 185.99339485 -266.63453202 194.50823646 -268.51171875 203.24609375 C-269.74483862 212.18621283 -267.61161649 221.07229736 -262.30859375 228.421875 C-255.26598564 236.72654341 -247.50670556 242.81308809 -236.44677734 244.02587891 C-230.77829778 244.3969186 -225.09555052 244.2914106 -219.41796875 244.25390625 C-218.11859375 244.24939453 -216.81921875 244.24488281 -215.48046875 244.24023438 C-212.2929205 244.22851545 -209.1054692 244.21210844 -205.91796875 244.19140625 C-209.26766273 240.79930049 -209.26766273 240.79930049 -212.76171875 237.55859375 C-219.74104267 231.27061795 -223.591824 222.5861612 -224.15625 213.25 C-224.46444931 200.32244004 -222.94163665 189.96168452 -213.93359375 179.99609375 C-208.76921481 174.61231309 -203.27869731 169.97243908 -197.37353516 165.4387207 C-193.10034801 162.15249379 -188.98428441 158.72968821 -184.91796875 155.19140625 C-179.76733404 150.71888445 -174.49586838 146.45270591 -169.10644531 142.2722168 C-164.47863663 138.66884022 -159.99491449 134.91824558 -155.53540039 131.10961914 C-151.53855839 127.700458 -147.47070192 124.39730035 -143.35546875 121.1328125 C-139.8870552 118.37031004 -136.46366532 115.55395343 -133.03515625 112.7421875 C-129.33886264 109.71365054 -125.62795801 106.70313667 -121.91796875 103.69140625 C-115.57268675 98.5392542 -109.24012172 93.37192614 -102.91796875 88.19140625 C-100.16169196 85.93591222 -97.4050632 83.68084882 -94.6484375 81.42578125 C-92.8797408 79.97843574 -91.11148332 78.53055324 -89.34375 77.08203125 C-83.18617187 72.0381556 -77.01166984 67.01544169 -70.83251953 61.99804688 C-65.18302816 57.40960018 -59.54706394 52.8048543 -53.91796875 48.19140625 C-46.90368288 42.4426949 -39.87289525 36.71474624 -32.83251953 30.99804688 C-28.05659687 27.11910183 -23.28421264 23.23605548 -18.53515625 19.32421875 C-16.63910384 17.77907753 -14.72521618 16.25573819 -12.80078125 14.74609375 C-11.78757812 13.94429687 -10.774375 13.1425 -9.73046875 12.31640625 C-8.34794922 11.23746094 -8.34794922 11.23746094 -6.9375 10.13671875 C-5.93783203 9.17378906 -5.93783203 9.17378906 -4.91796875 8.19140625 C-4.91796875 7.20140625 -4.91796875 6.21140625 -4.91796875 5.19140625 C-22.27503258 -2.45566081 -35.60278855 0.37011573 -49.91796875 12.62890625 Z " fill="#111" fill-rule="evenodd" transform="translate(329.91796875,98.80859375)"/>
<path d="M0 0 C1.21157021 -0.01429802 1.21157021 -0.01429802 2.44761658 -0.02888489 C3.75080589 -0.02751778 3.75080589 -0.02751778 5.08032227 -0.02612305 C5.97662857 -0.03040817 6.87293488 -0.0346933 7.79640198 -0.03910828 C9.69189611 -0.04485079 11.58741228 -0.04535241 13.48291016 -0.04101562 C16.38230013 -0.03785751 19.28066798 -0.06130906 22.17993164 -0.08666992 C24.02172723 -0.08894311 25.86352556 -0.08964632 27.70532227 -0.08862305 C28.57209091 -0.09783279 29.43885956 -0.10704254 30.33189392 -0.11653137 C33.78899208 -0.08997514 36.28432375 -0.05826079 39.41259766 1.48486328 C43.65606024 6.39549062 43.23440238 11.88425707 43.1862793 18.02197266 C43.18657135 18.99805984 43.1868634 19.97414703 43.18716431 20.97981262 C43.18577334 24.19927932 43.1702229 27.41851328 43.15454102 30.63793945 C43.15081006 32.87281671 43.14796348 35.1076956 43.14596558 37.34257507 C43.13833562 43.2198235 43.1186925 49.09697281 43.09655762 54.97418213 C43.07608553 60.97341572 43.06696094 66.97266536 43.05688477 72.97192383 C43.03544609 84.73954546 43.00131774 96.50709358 42.95922852 108.2746582 C44.05750977 108.55567383 45.15579102 108.83668945 46.28735352 109.1262207 C51.75986647 110.83783646 54.83635991 114.5903553 57.95922852 119.2746582 C59.19224622 122.97371132 59.1387759 126.42070655 59.16796875 130.27514648 C59.17775253 131.09018143 59.18753632 131.90521637 59.19761658 132.74494934 C59.22755217 135.44493992 59.24895436 138.14488089 59.26782227 140.8449707 C59.27439409 141.76875393 59.28096592 142.69253716 59.28773689 143.64431381 C59.32032714 148.53703022 59.3447753 153.42972493 59.36425781 158.32250977 C59.38204747 162.36352416 59.4168304 166.40383766 59.46679688 170.44458008 C59.52714009 175.33052048 59.55775325 180.21581272 59.5674305 185.102108 C59.57596454 186.95919206 59.59473188 188.81625977 59.62417412 190.67313004 C59.8869029 208.19043711 59.8869029 208.19043711 54.60389709 214.74264526 C49.92783308 219.09841072 45.04705588 220.97193003 38.77172852 221.5871582 C29.60631573 220.83589486 23.69416553 215.74798704 17.39672852 209.4621582 C15.98009183 208.07928188 14.56212918 206.69776256 13.14282227 205.31762695 C12.4505957 204.64086914 11.75836914 203.96411133 11.04516602 203.2668457 C8.37409683 200.71582457 5.60442193 198.29469827 2.81005859 195.88037109 C-0.33717559 193.14994513 -3.38476591 190.31407858 -6.44506836 187.48681641 C-9.76618354 184.42561912 -13.14071145 181.43595702 -16.54077148 178.4621582 C-21.71374364 173.81229559 -25.66048684 169.54327802 -26.18121338 162.32891846 C-26.18804138 161.65133484 -26.19486938 160.97375122 -26.2019043 160.27563477 C-26.21151184 159.50092834 -26.22111938 158.72622192 -26.23101807 157.92803955 C-26.23526794 157.09882996 -26.23951782 156.26962036 -26.24389648 155.4152832 C-26.24959656 154.55207458 -26.25529663 153.68886597 -26.26116943 152.79949951 C-26.27060443 150.97384867 -26.27714745 149.14818091 -26.28100586 147.32250977 C-26.29068848 144.54843909 -26.32171632 141.77511693 -26.35327148 139.0012207 C-26.35980457 137.22257924 -26.36505384 135.44393251 -26.36889648 133.6652832 C-26.38124329 132.84417053 -26.39359009 132.02305786 -26.40631104 131.17706299 C-26.38259041 124.95413905 -25.4504273 119.23248216 -21.39233398 114.2512207 C-20.82256836 113.80520508 -20.25280273 113.35918945 -19.66577148 112.8996582 C-18.81885742 112.20743164 -18.81885742 112.20743164 -17.95483398 111.5012207 C-15.74432312 110.08468925 -13.50013305 109.17895953 -11.04077148 108.2746582 C-11.00338867 107.58500977 -10.96600586 106.89536133 -10.92749023 106.18481445 C-10.59567203 101.44176606 -10.17400631 97.17546024 -8.47827148 92.7121582 C-6.19311266 86.39701486 -6.07087406 80.35599308 -8.54077148 74.0871582 C-11.73929059 65.51208078 -11.02960023 55.77904258 -7.72045898 47.38012695 C-5.9719096 41.96364353 -6.40444043 36.48323677 -8.54077148 31.2746582 C-10.3121639 26.57625069 -10.37989359 22.05026632 -10.41577148 17.0871582 C-10.42930664 16.31436523 -10.4428418 15.54157227 -10.45678711 14.74536133 C-10.41898788 9.87766058 -9.75358495 6.47124053 -7.04077148 2.2746582 C-4.00670588 0.2519478 -3.40564372 0.02211159 0 0 Z M29.95922852 182.2746582 C27.86243449 184.97053624 27.96412031 186.3676022 28.14672852 189.8371582 C28.93435133 193.16940859 29.25604465 194.32836582 31.95922852 196.2746582 C35.73361465 198.16185127 40.38303401 197.77240384 44.33422852 196.5246582 C46.47368546 194.8789221 47.18398199 193.88230562 47.95922852 191.2746582 C47.73478721 186.49819894 47.73478721 186.49819894 45.52172852 182.3996582 C41.15390245 179.25482344 34.33641288 178.9075933 29.95922852 182.2746582 Z " fill="#111" fill-rule="evenodd" transform="translate(544.040771484375,9.725341796875)"/>
</svg>
