<?xml version="1.0" encoding="UTF-8"?>
<svg version="1.1" xmlns="http://www.w3.org/2000/svg" width="718" height="490">
<path d="M0 0 C3.05883825 1.55329928 3.05883825 1.55329928 6.15234375 0.20703125 C7.16039062 -0.375625 8.1684375 -0.95828125 9.20703125 -1.55859375 C18.65102839 -6.89337076 28.82875399 -7.05538241 39.4453125 -5.23046875 C47.57448322 -2.86170377 53.63313228 1.87822167 60.08203125 7.19140625 C61.33100397 8.19919113 62.58105372 9.2056423 63.83203125 10.2109375 C67.23730331 12.95591798 70.62545148 15.72121549 74.00878906 18.49316406 C77.40325804 21.27365466 80.80384185 24.04659852 84.20703125 26.81640625 C84.87259033 27.35821533 85.53814941 27.90002441 86.22387695 28.45825195 C90.4546589 31.89372353 94.72205501 35.2773921 99.01953125 38.62890625 C105.02480405 43.31229613 110.90052611 48.14221598 116.76538086 52.99975586 C121.15604854 56.62829612 125.58709769 60.19303995 130.08203125 63.69140625 C136.06923583 68.35119365 141.92296594 73.1607314 147.765625 78 C152.15624597 81.62841552 156.58718832 85.19311049 161.08203125 88.69140625 C167.06923583 93.35119365 172.92296594 98.1607314 178.765625 103 C183.15624597 106.62841552 187.58718832 110.19311049 192.08203125 113.69140625 C198.06923583 118.35119365 203.92296594 123.1607314 209.765625 128 C214.15624597 131.62841552 218.58718832 135.19311049 223.08203125 138.69140625 C229.06586195 143.34856778 234.91854293 148.1528393 240.75463867 152.9934082 C245.24081672 156.7048259 249.78773731 160.31893546 254.39453125 163.87890625 C267.11092178 173.77688354 279.7390885 183.6074221 283.08203125 200.19140625 C284.53088309 212.03772995 283.24482275 223.12446732 276.02734375 233.00390625 C268.7259341 241.49274238 260.41150048 248.44012867 249.08203125 250.19140625 C246.32250704 250.28602 243.58860495 250.33093372 240.82938957 250.32562733 C239.58219186 250.32915567 239.58219186 250.32915567 238.30979824 250.3327553 C235.51135917 250.33943565 232.71296664 250.33898736 229.91452026 250.33857727 C227.89276691 250.34187649 225.87101421 250.34560218 223.84926236 250.34971875 C218.28362213 250.35974015 212.71799268 250.36345577 207.1523447 250.36610806 C201.15352482 250.37001064 195.15471348 250.37958895 189.15589905 250.38832092 C175.34961729 250.40715146 161.5433349 250.41734113 147.73704397 250.4257816 C140.9135817 250.42998923 134.09012031 250.43521105 127.26665878 250.44046613 C103.90642686 250.45835524 80.5461947 250.47335114 57.18595695 250.48078632 C55.71963944 250.48126108 54.25332193 250.48173697 52.78700442 250.48221399 C51.69627066 250.48256855 51.69627066 250.48256855 50.58350188 250.48293028 C46.89941791 250.48413147 43.21533396 250.48534692 39.53125 250.48657227 C38.80013502 250.48681242 38.06902004 250.48705257 37.31575006 250.48729999 C13.61164048 250.4951928 -10.09241905 250.51862479 -33.79650677 250.55112821 C-58.86139498 250.5854348 -83.92625392 250.6051382 -108.991166 250.60843056 C-111.74332612 250.6088481 -114.49548623 250.60932766 -117.24764633 250.60985374 C-118.26412543 250.61003853 -118.26412543 250.61003853 -119.30113946 250.61022705 C-130.20101199 250.61255798 -141.10082635 250.62821183 -152.00067816 250.64869559 C-162.95926234 250.66896282 -173.91778618 250.67409349 -184.87638707 250.66492496 C-190.81188705 250.66037519 -196.74719831 250.66230616 -202.6826725 250.6816864 C-208.11846536 250.69928187 -213.55393132 250.69834948 -218.98972748 250.68278911 C-220.95409849 250.68040758 -222.91849192 250.68476476 -224.88282861 250.69661776 C-240.02721678 250.78232549 -252.23590886 249.07313458 -263.85546875 238.4140625 C-271.68153805 230.16632998 -275.7419153 219.39342588 -275.984375 208.09765625 C-275.51465047 196.14103175 -271.24266641 185.81288457 -262.91796875 177.19140625 C-255.99194299 170.83542376 -248.56710937 165.08370865 -241.15014648 159.31689453 C-236.59862968 155.76667361 -232.19347827 152.06902952 -227.81030273 148.31420898 C-223.94625824 145.02027899 -219.99236812 141.86541408 -215.98046875 138.75390625 C-210.47220099 134.4784778 -205.15483214 130.02111828 -199.88256836 125.45898438 C-195.88390692 122.00347585 -191.81773591 118.6573465 -187.671875 115.37890625 C-184.08616454 112.53068234 -180.53312032 109.64319793 -176.98046875 106.75390625 C-176.28816162 106.19098877 -175.59585449 105.62807129 -174.88256836 105.0480957 C-169.21863773 100.44025423 -163.56560062 95.81920778 -157.91796875 91.19140625 C-155.16169196 88.93591222 -152.4050632 86.68084882 -149.6484375 84.42578125 C-147.8797408 82.97843574 -146.11148332 81.53055324 -144.34375 80.08203125 C-138.18617187 75.0381556 -132.01166984 70.01544169 -125.83251953 64.99804688 C-120.18302615 60.40959855 -114.5474747 55.80435498 -108.91796875 51.19140625 C-106.16169196 48.93591222 -103.4050632 46.68084882 -100.6484375 44.42578125 C-98.8797408 42.97843574 -97.11148332 41.53055324 -95.34375 40.08203125 C-89.18414157 35.03649251 -83.00850351 30.01099765 -76.82592773 24.99365234 C-72.97090852 21.86405227 -69.12693752 18.72179648 -65.29296875 15.56640625 C-64.00519531 14.51839844 -64.00519531 14.51839844 -62.69140625 13.44921875 C-61.21335844 12.24596293 -59.73672361 11.04088791 -58.27050781 9.82324219 C-41.22066207 -4.31681393 -20.70418637 -12.83271524 0 0 Z M-49.91796875 12.62890625 C-51.40966474 13.88209571 -52.90186464 15.13468556 -54.39453125 16.38671875 C-55.52036621 17.33659668 -55.52036621 17.33659668 -56.66894531 18.30566406 C-60.17660436 21.24673642 -63.73381283 24.12555429 -67.29296875 27.00390625 C-68.62388145 28.08310704 -69.95461607 29.16252747 -71.28515625 30.2421875 C-71.90745117 30.7470166 -72.52974609 31.2518457 -73.17089844 31.77197266 C-75.59174949 33.73882957 -78.0053327 35.71448507 -80.41796875 37.69140625 C-84.90820783 41.37015634 -89.4115419 45.03252562 -93.91796875 48.69140625 C-100.26320201 53.84361391 -106.59627669 59.0103253 -112.91796875 64.19140625 C-119.93588131 69.94308994 -126.97017132 75.67416581 -134.0144043 81.39355469 C-137.82161946 84.48553504 -141.62403676 87.58312462 -145.41796875 90.69140625 C-149.90820783 94.37015634 -154.4115419 98.03252562 -158.91796875 101.69140625 C-165.26320201 106.84361391 -171.59627669 112.0103253 -177.91796875 117.19140625 C-184.93588131 122.94308994 -191.97017132 128.67416581 -199.0144043 134.39355469 C-202.82161946 137.48553504 -206.62403676 140.58312462 -210.41796875 143.69140625 C-214.90820783 147.37015634 -219.4115419 151.03252562 -223.91796875 154.69140625 C-229.39550888 159.13906373 -234.86620776 163.59478279 -240.32421875 168.06640625 C-243.12433879 170.3604805 -245.92750281 172.65081043 -248.73046875 174.94140625 C-249.63796875 175.69035156 -250.54546875 176.43929687 -251.48046875 177.2109375 C-252.87323865 178.34256305 -254.28145628 179.45697149 -255.73046875 180.515625 C-263.11104287 185.99339485 -266.63453202 194.50823646 -268.51171875 203.24609375 C-269.74483862 212.18621283 -267.61161649 221.07229736 -262.30859375 228.421875 C-255.26598564 236.72654341 -247.50670556 242.81308809 -236.44677734 244.02587891 C-230.77829778 244.3969186 -225.09555052 244.2914106 -219.41796875 244.25390625 C-218.11859375 244.24939453 -216.81921875 244.24488281 -215.48046875 244.24023438 C-212.2929205 244.22851545 -209.1054692 244.21210844 -205.91796875 244.19140625 C-209.26766273 240.79930049 -209.26766273 240.79930049 -212.76171875 237.55859375 C-219.74104267 231.27061795 -223.591824 222.5861612 -224.15625 213.25 C-224.46444931 200.32244004 -222.94163665 189.96168452 -213.93359375 179.99609375 C-208.76921481 174.61231309 -203.27869731 169.97243908 -197.37353516 165.4387207 C-193.10034801 162.15249379 -188.98428441 158.72968821 -184.91796875 155.19140625 C-179.76733404 150.71888445 -174.49586838 146.45270591 -169.10644531 142.2722168 C-164.47863663 138.66884022 -159.99491449 134.91824558 -155.53540039 131.10961914 C-151.53855839 127.700458 -147.47070192 124.39730035 -143.35546875 121.1328125 C-139.8870552 118.37031004 -136.46366532 115.55395343 -133.03515625 112.7421875 C-129.33886264 109.71365054 -125.62795801 106.70313667 -121.91796875 103.69140625 C-115.57268675 98.5392542 -109.24012172 93.37192614 -102.91796875 88.19140625 C-100.16169196 85.93591222 -97.4050632 83.68084882 -94.6484375 81.42578125 C-92.8797408 79.97843574 -91.11148332 78.53055324 -89.34375 77.08203125 C-83.18617187 72.0381556 -77.01166984 67.01544169 -70.83251953 61.99804688 C-65.18302816 57.40960018 -59.54706394 52.8048543 -53.91796875 48.19140625 C-46.90368288 42.4426949 -39.87289525 36.71474624 -32.83251953 30.99804688 C-28.05659687 27.11910183 -23.28421264 23.23605548 -18.53515625 19.32421875 C-16.63910384 17.77907753 -14.72521618 16.25573819 -12.80078125 14.74609375 C-11.78757812 13.94429687 -10.774375 13.1425 -9.73046875 12.31640625 C-8.34794922 11.23746094 -8.34794922 11.23746094 -6.9375 10.13671875 C-5.93783203 9.17378906 -5.93783203 9.17378906 -4.91796875 8.19140625 C-4.91796875 7.20140625 -4.91796875 6.21140625 -4.91796875 5.19140625 C-22.27503258 -2.45566081 -35.60278855 0.37011573 -49.91796875 12.62890625 Z " fill="#000000" transform="translate(329.91796875,98.80859375)"/>
<path d="M0 0 C1.21157021 -0.01429802 1.21157021 -0.01429802 2.44761658 -0.02888489 C3.75080589 -0.02751778 3.75080589 -0.02751778 5.08032227 -0.02612305 C5.97662857 -0.03040817 6.87293488 -0.0346933 7.79640198 -0.03910828 C9.69189611 -0.04485079 11.58741228 -0.04535241 13.48291016 -0.04101562 C16.38230013 -0.03785751 19.28066798 -0.06130906 22.17993164 -0.08666992 C24.02172723 -0.08894311 25.86352556 -0.08964632 27.70532227 -0.08862305 C28.57209091 -0.09783279 29.43885956 -0.10704254 30.33189392 -0.11653137 C33.78899208 -0.08997514 36.28432375 -0.05826079 39.41259766 1.48486328 C43.65606024 6.39549062 43.23440238 11.88425707 43.1862793 18.02197266 C43.18657135 18.99805984 43.1868634 19.97414703 43.18716431 20.97981262 C43.18577334 24.19927932 43.1702229 27.41851328 43.15454102 30.63793945 C43.15081006 32.87281671 43.14796348 35.1076956 43.14596558 37.34257507 C43.13833562 43.2198235 43.1186925 49.09697281 43.09655762 54.97418213 C43.07608553 60.97341572 43.06696094 66.97266536 43.05688477 72.97192383 C43.03544609 84.73954546 43.00131774 96.50709358 42.95922852 108.2746582 C44.05750977 108.55567383 45.15579102 108.83668945 46.28735352 109.1262207 C51.75986647 110.83783646 54.83635991 114.5903553 57.95922852 119.2746582 C59.19224622 122.97371132 59.1387759 126.42070655 59.16796875 130.27514648 C59.17775253 131.09018143 59.18753632 131.90521637 59.19761658 132.74494934 C59.22755217 135.44493992 59.24895436 138.14488089 59.26782227 140.8449707 C59.27439409 141.76875393 59.28096592 142.69253716 59.28773689 143.64431381 C59.32032714 148.53703022 59.3447753 153.42972493 59.36425781 158.32250977 C59.38204747 162.36352416 59.4168304 166.40383766 59.46679688 170.44458008 C59.52714009 175.33052048 59.55775325 180.21581272 59.5674305 185.102108 C59.57596454 186.95919206 59.59473188 188.81625977 59.62417412 190.67313004 C59.8869029 208.19043711 59.8869029 208.19043711 54.60389709 214.74264526 C49.92783308 219.09841072 45.04705588 220.97193003 38.77172852 221.5871582 C29.60631573 220.83589486 23.69416553 215.74798704 17.39672852 209.4621582 C15.98009183 208.07928188 14.56212918 206.69776256 13.14282227 205.31762695 C12.4505957 204.64086914 11.75836914 203.96411133 11.04516602 203.2668457 C8.37409683 200.71582457 5.60442193 198.29469827 2.81005859 195.88037109 C-0.33717559 193.14994513 -3.38476591 190.31407858 -6.44506836 187.48681641 C-9.76618354 184.42561912 -13.14071145 181.43595702 -16.54077148 178.4621582 C-21.71374364 173.81229559 -25.66048684 169.54327802 -26.18121338 162.32891846 C-26.18804138 161.65133484 -26.19486938 160.97375122 -26.2019043 160.27563477 C-26.21151184 159.50092834 -26.22111938 158.72622192 -26.23101807 157.92803955 C-26.23526794 157.09882996 -26.23951782 156.26962036 -26.24389648 155.4152832 C-26.24959656 154.55207458 -26.25529663 153.68886597 -26.26116943 152.79949951 C-26.27060443 150.97384867 -26.27714745 149.14818091 -26.28100586 147.32250977 C-26.29068848 144.54843909 -26.32171632 141.77511693 -26.35327148 139.0012207 C-26.35980457 137.22257924 -26.36505384 135.44393251 -26.36889648 133.6652832 C-26.38124329 132.84417053 -26.39359009 132.02305786 -26.40631104 131.17706299 C-26.38259041 124.95413905 -25.4504273 119.23248216 -21.39233398 114.2512207 C-20.82256836 113.80520508 -20.25280273 113.35918945 -19.66577148 112.8996582 C-18.81885742 112.20743164 -18.81885742 112.20743164 -17.95483398 111.5012207 C-15.74432312 110.08468925 -13.50013305 109.17895953 -11.04077148 108.2746582 C-11.00338867 107.58500977 -10.96600586 106.89536133 -10.92749023 106.18481445 C-10.59567203 101.44176606 -10.17400631 97.17546024 -8.47827148 92.7121582 C-6.19311266 86.39701486 -6.07087406 80.35599308 -8.54077148 74.0871582 C-11.73929059 65.51208078 -11.02960023 55.77904258 -7.72045898 47.38012695 C-5.9719096 41.96364353 -6.40444043 36.48323677 -8.54077148 31.2746582 C-10.3121639 26.57625069 -10.37989359 22.05026632 -10.41577148 17.0871582 C-10.42930664 16.31436523 -10.4428418 15.54157227 -10.45678711 14.74536133 C-10.41898788 9.87766058 -9.75358495 6.47124053 -7.04077148 2.2746582 C-4.00670588 0.2519478 -3.40564372 0.02211159 0 0 Z M29.95922852 182.2746582 C27.86243449 184.97053624 27.96412031 186.3676022 28.14672852 189.8371582 C28.93435133 193.16940859 29.25604465 194.32836582 31.95922852 196.2746582 C35.73361465 198.16185127 40.38303401 197.77240384 44.33422852 196.5246582 C46.47368546 194.8789221 47.18398199 193.88230562 47.95922852 191.2746582 C47.73478721 186.49819894 47.73478721 186.49819894 45.52172852 182.3996582 C41.15390245 179.25482344 34.33641288 178.9075933 29.95922852 182.2746582 Z " fill="#000000" transform="translate(544.040771484375,9.725341796875)"/>
<path d="M0 0 C7.26 0 14.52 0 22 0 C23.41300513 4.2390154 24.46064719 7.90836739 25.25390625 12.23828125 C25.46853516 13.38748047 25.68316406 14.53667969 25.90429688 15.72070312 C26.12150391 16.90599609 26.33871094 18.09128906 26.5625 19.3125 C26.9977642 21.68424575 27.4363779 24.05538012 27.87890625 26.42578125 C28.0704126 27.47161377 28.26191895 28.51744629 28.45922852 29.5949707 C28.76119475 31.9394488 28.76119475 31.9394488 30 33 C32.97 22.11 35.94 11.22 39 0 C46.59 0 54.18 0 62 0 C63.12523981 3.8540968 64.25020007 7.70827483 65.375 11.5625 C65.69210938 12.64853516 66.00921875 13.73457031 66.3359375 14.85351562 C66.9519106 16.96450676 67.56621985 19.07598424 68.17871094 21.18798828 C68.66734261 22.86101432 69.16283227 24.53209992 69.67285156 26.19873047 C70.62844512 29.3545487 71 31.63778784 71 35 C71.66 35 72.32 35 73 35 C73.0424585 34.43039551 73.08491699 33.86079102 73.12866211 33.27392578 C73.75289569 26.02126968 75.08429632 18.99687768 76.5625 11.875 C76.91344727 10.15410156 76.91344727 10.15410156 77.27148438 8.3984375 C77.84322995 5.59805099 78.42099216 2.79889399 79 0 C86.26 0 93.52 0 101 0 C102.51346317 3.02692633 101.48054014 5.14800169 100.75244141 8.42163086 C100.60789017 9.08034683 100.46333893 9.73906281 100.31440735 10.41773987 C99.83338993 12.60162595 99.34257957 14.78318608 98.8515625 16.96484375 C98.51567235 18.47925269 98.18034231 19.99378597 97.84555054 21.50843811 C97.14172476 24.68616725 96.43347559 27.86286512 95.72167969 31.03881836 C94.80905773 35.11091497 93.90371452 39.18458231 93.00121498 43.25893307 C92.1411672 47.14059011 91.27788042 51.02152423 90.4140625 54.90234375 C90.24911915 55.64427412 90.0841758 56.38620449 89.91423416 57.1506176 C89.44669973 59.25046832 88.9769151 61.34980176 88.50634766 63.44897461 C88.23907867 64.64429306 87.97180969 65.83961151 87.69644165 67.07115173 C87 70 87 70 86 73 C78.08 73 70.16 73 62 73 C58.37 60.13 54.74 47.26 51 34 C48.09000736 43.31197645 45.22884875 52.52187288 42.75 61.9375 C42.2478823 63.8432649 41.7428434 65.74826342 41.234375 67.65234375 C41.02006836 68.46695068 40.80576172 69.28155762 40.58496094 70.12084961 C40 72 40 72 39 73 C37.29227642 73.08713831 35.58101351 73.10700007 33.87109375 73.09765625 C32.83662109 73.09443359 31.80214844 73.09121094 30.73632812 73.08789062 C29.64771484 73.07951172 28.55910156 73.07113281 27.4375 73.0625 C25.7987793 73.05573242 25.7987793 73.05573242 24.12695312 73.04882812 C21.41791505 73.03699826 18.70898401 73.02051543 16 73 C14.57210383 68.90005008 13.43381377 64.83528951 12.48779297 60.59912109 C12.2076535 59.35117767 11.92751404 58.10323425 11.6388855 56.81747437 C11.33979253 55.46950503 11.04089792 54.12149166 10.7421875 52.7734375 C10.43131695 51.37908543 10.12028946 49.98476835 9.80911255 48.59048462 C9.15983749 45.67765388 8.51295411 42.76430457 7.86767578 39.85058594 C7.04106165 36.11930194 6.20771783 32.38955777 5.37249565 28.66019249 C4.7295409 25.78524315 4.0905317 22.90942769 3.45267105 20.03334427 C3.14697497 18.6575587 2.83996637 17.28206409 2.5316124 15.9068718 C2.10148428 13.98618326 1.67731815 12.0641625 1.25341797 10.14208984 C1.01074188 9.04988129 0.7680658 7.95767273 0.51803589 6.83236694 C0 4 0 4 0 0 Z " fill="#000000" transform="translate(161,386)"/>
<path d="M0 0 C6.87705529 5.90214707 10.30462096 13.18011193 11.22314453 22.18847656 C12.04294858 34.56006494 11.49103497 46.97817545 3.375 57 C-4.63284942 65.08199617 -14.79819883 67.95084025 -25.9375 68.25 C-37.5577733 67.94085345 -48.07901164 65.44701016 -56.375 56.875 C-65.35615323 45.69400964 -65.22247312 32.76646628 -64 19 C-62.38466498 9.82287795 -57.28857911 2.89734929 -49.83203125 -2.59765625 C-35.08573191 -11.54983443 -13.59252056 -10.39155155 0 0 Z M-38 16 C-41.88306861 23.50037587 -42.11576142 31.76976704 -39.875 39.8125 C-38.16096708 44.35911315 -36.10985291 46.42126876 -32 49 C-27.17792323 50.53896067 -23.64281623 49.94154133 -19 48 C-13.75144478 43.68452126 -12.94633418 39.01111813 -12.15234375 32.39453125 C-11.8664078 26.02329177 -12.51639178 20.42322676 -15.875 14.9375 C-20.1504307 11.03931318 -23.86323756 10.48265946 -29.52734375 10.6328125 C-33.6260057 11.24146056 -35.37817827 12.86660329 -38 16 Z " fill="#000000" transform="translate(330,393)"/>
<path d="M0 0 C20.13 0 40.26 0 61 0 C61 5.61 61 11.22 61 17 C48.79 17 36.58 17 24 17 C24 20.3 24 23.6 24 27 C35.22 27 46.44 27 58 27 C58 32.28 58 37.56 58 43 C46.78 43 35.56 43 24 43 C24 47.29 24 51.58 24 56 C36.54 56 49.08 56 62 56 C62 61.61 62 67.22 62 73 C41.54 73 21.08 73 0 73 C0 48.91 0 24.82 0 0 Z " fill="#000000" transform="translate(418,386)"/>
<path d="M0 0 C8.84882724 -0.02255318 17.69763552 -0.04091634 26.54648495 -0.05181217 C30.65494285 -0.05704046 34.76338014 -0.06413713 38.87182617 -0.07543945 C42.83346828 -0.08627025 46.79509052 -0.09227724 50.75674629 -0.09487724 C52.27148311 -0.09673114 53.78621879 -0.1003511 55.30094719 -0.10573006 C57.41541813 -0.11294307 59.52980594 -0.11399083 61.64428711 -0.11352539 C62.85007919 -0.115746 64.05587128 -0.11796661 65.29820251 -0.12025452 C68 0 68 0 69 1 C69.0983721 2.33043625 69.13078592 3.66593344 69.1328125 5 C69.13410156 5.804375 69.13539063 6.60875 69.13671875 7.4375 C69.13285156 8.283125 69.12898437 9.12875 69.125 10 C69.12886719 10.845625 69.13273438 11.69125 69.13671875 12.5625 C69.13542969 13.366875 69.13414062 14.17125 69.1328125 15 C69.13168457 15.7425 69.13055664 16.485 69.12939453 17.25 C69 19 69 19 68 20 C60.74 20 53.48 20 46 20 C46 37.49 46 54.98 46 73 C38.08 73 30.16 73 22 73 C22 55.51 22 38.02 22 20 C14.74 20 7.48 20 0 20 C0 13.4 0 6.8 0 0 Z " fill="#000000" transform="translate(558,386)"/>
<path d="M0 0 C1.80868813 0.00333092 1.80868813 0.00333092 3.65391541 0.00672913 C4.64899864 0.00651009 4.64899864 0.00651009 5.66418457 0.00628662 C7.86644207 0.00698571 10.06861596 0.01477787 12.27085876 0.02259827 C13.79400588 0.02446246 15.31715359 0.02588636 16.84030151 0.02688599 C20.85657903 0.03071105 24.87282059 0.04054124 28.88908386 0.05158997 C32.98443617 0.06180433 37.07979427 0.06638366 41.17515564 0.07142639 C49.21618963 0.08216352 57.25718746 0.09976022 65.29820251 0.12025452 C65.29820251 6.72025452 65.29820251 13.32025452 65.29820251 20.12025452 C58.03820251 20.12025452 50.77820251 20.12025452 43.29820251 20.12025452 C43.29820251 37.61025452 43.29820251 55.10025452 43.29820251 73.12025452 C35.37820251 73.12025452 27.45820251 73.12025452 19.29820251 73.12025452 C19.29820251 55.63025452 19.29820251 38.14025452 19.29820251 20.12025452 C12.03820251 20.12025452 4.77820251 20.12025452 -2.70179749 20.12025452 C-4.22389339 18.59815861 -3.83139269 17.2381537 -3.83460999 15.12025452 C-3.83589905 14.31587952 -3.83718811 13.51150452 -3.83851624 12.68275452 C-3.83464905 11.83712952 -3.83078186 10.99150452 -3.82679749 10.12025452 C-3.83066467 9.27462952 -3.83453186 8.42900452 -3.83851624 7.55775452 C-3.83722717 6.75337952 -3.83593811 5.94900452 -3.83460999 5.12025452 C-3.83348206 4.37775452 -3.83235413 3.63525452 -3.83119202 2.87025452 C-3.61387257 -0.06888851 -2.9601394 0.13175308 0 0 Z " fill="#000000" transform="translate(488.70179748535156,385.87974548339844)"/>
<path d="M0 0 C22.77 0 45.54 0 69 0 C69 6.6 69 13.2 69 20 C61.41 20 53.82 20 46 20 C46 37.49 46 54.98 46 73 C38.41 73 30.82 73 23 73 C23 55.51 23 38.02 23 20 C15.41 20 7.82 20 0 20 C0 13.4 0 6.8 0 0 Z " fill="#000000" transform="translate(91,386)"/>
<path d="M0 0 C7.59 0 15.18 0 23 0 C23 17.82 23 35.64 23 54 C34.55 54 46.1 54 58 54 C58 60.27 58 66.54 58 73 C38.86 73 19.72 73 0 73 C0 48.91 0 24.82 0 0 Z " fill="#000000" transform="translate(352,386)"/>
</svg>
